<svg width="16" height="16" viewBox="0 0 16 16" fill="none" xmlns="http://www.w3.org/2000/svg">
<path d="M14.6666 13.2533C14.5753 13.3907 14.4514 13.5034 14.306 13.5813C14.1606 13.6592 13.9982 13.7 13.8332 13.6999H13.7199L12.6266 13.5666L12.2066 14.5733C12.1339 14.7426 12.0157 14.8883 11.865 14.9943C11.7143 15.1003 11.5371 15.1622 11.3532 15.1733H11.2666C11.0921 15.1724 10.921 15.125 10.771 15.0359C10.621 14.9469 10.4975 14.8194 10.4132 14.6666L9.22656 12.6066C9.44383 12.4855 9.64347 12.3353 9.8199 12.1599L10.2666 11.7133H10.7666C11.3407 11.7142 11.8987 11.5231 12.3517 11.1703C12.8047 10.8176 13.1267 10.3235 13.2666 9.7666L14.6666 12.2133C14.7627 12.3697 14.8135 12.5497 14.8135 12.7333C14.8135 12.9169 14.7627 13.0968 14.6666 13.2533Z" fill="white"/>
<path d="M6.98663 12.7136L5.85329 14.6669C5.76679 14.8167 5.64242 14.9412 5.49264 15.0278C5.34287 15.1143 5.17296 15.16 4.99996 15.1602H4.93996C4.75608 15.1492 4.57889 15.0872 4.42819 14.9813C4.2775 14.8753 4.15924 14.7295 4.08663 14.5602L3.65329 13.5469L2.57329 13.6869C2.39048 13.7088 2.20518 13.6794 2.03809 13.6021C1.87099 13.5248 1.72868 13.4025 1.62703 13.249C1.52538 13.0955 1.46839 12.9168 1.46243 12.7327C1.45648 12.5487 1.50178 12.3667 1.59329 12.2069L2.83329 10.0669C3.01851 10.5533 3.34724 10.9719 3.77588 11.2672C4.20451 11.5625 4.71279 11.7205 5.23329 11.7202H5.73329L6.17996 12.1669C6.4123 12.398 6.68592 12.5834 6.98663 12.7136Z" fill="white"/>
<path d="M13.08 5.26002L12.5266 4.71335C12.4115 4.5904 12.3472 4.42844 12.3466 4.26002V3.59335C12.3449 3.17485 12.1778 2.77399 11.8819 2.47806C11.586 2.18213 11.1851 2.01511 10.7666 2.01335H10.1C9.93062 2.01097 9.76854 1.94423 9.64662 1.82668L9.09329 1.27335C8.79323 0.987246 8.39455 0.827637 7.97995 0.827637C7.56536 0.827637 7.16667 0.987246 6.86662 1.27335L6.31329 1.82668C6.19137 1.94423 6.02929 2.01097 5.85995 2.01335H5.19329C4.7789 2.02556 4.38591 2.20014 4.09908 2.49946C3.81224 2.79877 3.65452 3.19882 3.65995 3.61335V4.28002C3.65757 4.44935 3.59083 4.61143 3.47329 4.73335L2.91995 5.28002C2.7718 5.42581 2.65414 5.59962 2.57382 5.79134C2.49351 5.98305 2.45215 6.18883 2.45215 6.39668C2.45215 6.60454 2.49351 6.81032 2.57382 7.00203C2.65414 7.19375 2.7718 7.36756 2.91995 7.51335L3.47329 8.06668C3.58928 8.18692 3.6559 8.34633 3.65995 8.51335V9.18002C3.65995 9.59729 3.82571 9.99748 4.12077 10.2925C4.41583 10.5876 4.81601 10.7534 5.23329 10.7534H5.89995C6.06929 10.7557 6.23137 10.8225 6.35329 10.94L6.90662 11.4934C7.2026 11.7873 7.60282 11.9522 8.01995 11.9522C8.43709 11.9522 8.8373 11.7873 9.13329 11.4934L9.68662 10.94C9.80854 10.8225 9.97062 10.7557 10.14 10.7534H10.8066C11.2245 10.7534 11.6254 10.5878 11.9215 10.2929C12.2176 9.99807 12.3849 9.5979 12.3866 9.18002V8.51335C12.3889 8.34724 12.4531 8.18795 12.5666 8.06668L13.12 7.51335C13.2678 7.36412 13.3842 7.1868 13.4624 6.99185C13.5406 6.7969 13.5789 6.58826 13.5752 6.37825C13.5715 6.16823 13.5257 5.96109 13.4407 5.76904C13.3556 5.57699 13.233 5.40391 13.08 5.26002ZM10.2733 5.92669L8.04662 8.13335C7.95287 8.22698 7.82579 8.27958 7.69329 8.27958C7.56078 8.27958 7.4337 8.22698 7.33995 8.13335L6.22662 7.02002C6.13299 6.92627 6.08039 6.79919 6.08039 6.66668C6.08039 6.53418 6.13299 6.4071 6.22662 6.31335C6.32233 6.22089 6.45021 6.16921 6.58329 6.16921C6.71636 6.16921 6.84424 6.22089 6.93995 6.31335L7.69329 7.07335L9.55995 5.20002C9.65566 5.10755 9.78354 5.05587 9.91662 5.05587C10.0497 5.05587 10.1776 5.10755 10.2733 5.20002C10.3669 5.29377 10.4195 5.42085 10.4195 5.55335C10.4195 5.68585 10.3669 5.81293 10.2733 5.90668V5.92669Z" fill="white"/>
</svg>
