<svg width="16" height="16" viewBox="0 0 16 16" fill="none" xmlns="http://www.w3.org/2000/svg">
<path d="M15.1005 13.0464C15.1515 13.2384 15.1513 13.4404 15.0997 13.6322C15.0481 13.824 14.9471 13.9988 14.8066 14.1393C14.6662 14.2797 14.4913 14.3808 14.2995 14.4324C14.1077 14.4839 13.9057 14.4842 13.7138 14.4331L12.4138 14.0864C11.6671 14.4695 10.8397 14.6684 10.0005 14.6664C9.73268 14.6664 9.46527 14.6463 9.20047 14.6064C8.17123 14.4434 7.21323 13.9795 6.44714 13.2731C6.6338 13.2731 6.8138 13.2731 7.00047 13.2331C7.96507 13.0893 8.88637 12.7356 9.6994 12.197C10.5124 11.6584 11.1974 10.948 11.706 10.1158C12.2145 9.28367 12.5343 8.35006 12.6428 7.38086C12.7513 6.41165 12.6458 5.43045 12.3338 4.50645C13.1164 4.8815 13.7957 5.44186 14.3127 6.13892C14.8297 6.83597 15.1687 7.64866 15.3005 8.50645C15.469 9.60559 15.287 10.7299 14.7805 11.7198L15.1005 13.0464ZM9.76714 2.89312C9.06927 2.19671 8.19202 1.70737 7.23283 1.47944C6.27363 1.25152 5.27003 1.29393 4.33349 1.60197C3.39694 1.91 2.56411 2.47161 1.92748 3.22441C1.29086 3.97722 0.875362 4.89175 0.727135 5.86645C0.55865 6.96559 0.740589 8.08988 1.24714 9.07978L0.900468 10.4131C0.846414 10.6049 0.845133 10.8077 0.896762 11.0001C0.948392 11.1926 1.05102 11.3675 1.1938 11.5064C1.33276 11.6492 1.50769 11.7519 1.70012 11.8035C1.89256 11.8551 2.09537 11.8538 2.28714 11.7998L3.58714 11.4531C4.33666 11.8247 5.164 12.0121 6.00047 11.9998C7.05591 12.0006 8.08787 11.6883 8.96571 11.1023C9.84354 10.5163 10.5278 9.68305 10.9318 8.708C11.3358 7.73294 11.4414 6.65993 11.2353 5.62481C11.0292 4.58969 10.5205 3.63901 9.7738 2.89312H9.76714Z" fill="white"/>
</svg>
