<svg width="16" height="16" viewBox="0 0 16 16" fill="none" xmlns="http://www.w3.org/2000/svg">
<g clip-path="url(#clip0_260_60)">
<path d="M10.4254 0.707031C9.09302 0.707031 8.00469 1.80389 8.00469 3.13939C8.00469 4.47489 9.09302 5.56581 10.4254 5.56581C11.5481 5.56581 12.4932 4.78773 12.7655 3.74481H14.9804C15.3156 3.74458 15.5872 3.47202 15.587 3.13602C15.5868 2.80033 15.3153 2.52826 14.9804 2.52804H12.7631C12.4888 1.48676 11.546 0.707031 10.4254 0.707031ZM1.02302 2.52803C0.687813 2.52826 0.416255 2.80082 0.416476 3.13682C0.416698 3.47251 0.688126 3.74458 1.02302 3.74481H6.84646C6.81283 3.54727 6.7908 3.3459 6.7908 3.13939C6.7908 2.93087 6.81225 2.72751 6.84646 2.52803L1.02302 2.52803ZM5.5781 5.56581C4.45525 5.56581 3.51104 6.34836 3.23915 7.39275H1.02302C1.00369 7.39182 0.984321 7.39182 0.964988 7.39275C0.63047 7.41635 0.378373 7.7073 0.401914 8.04261C0.424711 8.36733 0.698371 8.61659 1.02302 8.60833H3.24033C3.51388 9.65007 4.45696 10.4293 5.5781 10.4293C6.91043 10.4293 8.00469 9.33366 8.00469 7.99817C8.00469 6.66267 6.91043 5.56581 5.5781 5.56581ZM9.15936 7.39275C9.19293 7.5902 9.21502 7.79175 9.21502 7.99817C9.21502 8.20619 9.19345 8.40945 9.15936 8.60833H14.9804C15.3153 8.61578 15.5928 8.3497 15.6002 8.01403C15.6077 7.67835 15.3422 7.4002 15.0073 7.39275C14.9984 7.39255 14.9894 7.39255 14.9804 7.39275H9.15936ZM10.4254 10.4293C9.09302 10.4293 8.00469 11.5262 8.00469 12.8617C8.00469 14.1972 9.09302 15.2929 10.4254 15.2929C11.5465 15.2929 12.4905 14.5136 12.7643 13.4719H14.9804C15.3153 13.4644 15.5808 13.1863 15.5733 12.8506C15.5661 12.5254 15.3048 12.2635 14.9804 12.2563H12.7655C12.4933 11.2119 11.5482 10.4293 10.4254 10.4293ZM0.964989 12.2563C0.63047 12.2799 0.378376 12.5708 0.40192 12.9061C0.42472 13.2309 0.698376 13.4801 1.02302 13.4719H6.84883C6.81475 13.2729 6.79317 13.0697 6.79317 12.8617C6.79317 12.6553 6.81529 12.4538 6.84883 12.2563H1.02302C1.00369 12.2553 0.984321 12.2553 0.964989 12.2563Z" fill="white"/>
</g>
<defs>
<clipPath id="clip0_260_60">
<rect width="16" height="16" fill="white"/>
</clipPath>
</defs>
</svg>
