<svg width="16" height="16" viewBox="0 0 16 16" fill="none" xmlns="http://www.w3.org/2000/svg">
<g clip-path="url(#clip0_260_64)">
<path d="M8 0C6.41775 0 4.87103 0.469192 3.55544 1.34824C2.23985 2.22729 1.21447 3.47672 0.608967 4.93853C0.00346625 6.40034 -0.15496 8.00887 0.153721 9.56072C0.462403 11.1126 1.22433 12.538 2.34315 13.6569C3.46197 14.7757 4.88743 15.5376 6.43928 15.8463C7.99113 16.155 9.59966 15.9965 11.0615 15.391C12.5233 14.7855 13.7727 13.7602 14.6518 12.4446C15.5308 11.129 16 9.58225 16 8C16 5.87827 15.1571 3.84344 13.6569 2.34315C12.1566 0.842855 10.1217 0 8 0ZM10.9284 4.19368C11.4895 4.19368 11.9442 4.96211 11.9442 5.91053C11.9442 6.85895 11.4895 7.62842 10.9284 7.62842C10.3674 7.62842 9.91263 6.85895 9.91263 5.91053C9.91263 4.96211 10.3674 4.19368 10.9284 4.19368ZM5.07158 4.19368C5.63158 4.19368 6.08632 4.96211 6.08632 5.91053C6.08632 6.85895 5.63158 7.62842 5.07158 7.62842C4.51158 7.62842 4.05579 6.85895 4.05579 5.91053C4.05579 4.96211 4.51053 4.19368 5.07158 4.19368ZM12.6095 9.93474C12.2737 11.8516 10.3842 13.1811 8.10527 13.1811C5.82632 13.1811 3.93579 11.8516 3.6 9.93474C3.59673 9.91525 3.59497 9.89555 3.59474 9.87579C3.59474 9.59895 3.93053 9.42 4.22632 9.52105C5.36211 9.91368 6.68842 10.1137 8.10527 10.1137C9.52211 10.1137 10.8474 9.91368 11.9853 9.52105C12.279 9.41579 12.6168 9.5979 12.6168 9.87579C12.6159 9.8956 12.6134 9.91531 12.6095 9.93474Z" fill="white"/>
</g>
<defs>
<clipPath id="clip0_260_64">
<rect width="16" height="16" fill="white"/>
</clipPath>
</defs>
</svg>
